<svg width="32" height="32" viewBox="0 0 32 32" fill="none" xmlns="http://www.w3.org/2000/svg">
<path d="M19.9999 25.3334C19.9999 26.3942 19.5785 27.4117 18.8283 28.1618C18.0782 28.9119 17.0608 29.3334 15.9999 29.3334C14.939 29.3334 13.9216 28.9119 13.1715 28.1618C12.4213 27.4117 11.9999 26.3942 11.9999 25.3334M16.9612 6.67071L15.0066 6.66671C10.5479 6.65604 6.67724 10.2787 6.64657 14.6667V19.72C6.64657 20.7734 6.51324 21.8014 5.93857 22.6774L5.5559 23.2614C4.97324 24.1467 5.5999 25.3334 6.64657 25.3334H25.3532C26.3999 25.3334 27.0252 24.1467 26.4439 23.2614L26.0612 22.6774C25.4879 21.8014 25.3532 20.772 25.3532 19.7187V14.668C25.2999 10.2787 21.4199 6.68138 16.9612 6.67071V6.67071Z" stroke="#2F5267" stroke-width="2" stroke-linecap="round" stroke-linejoin="round"/>
<path d="M15.9999 2.66669C16.7072 2.66669 17.3854 2.94764 17.8855 3.44774C18.3856 3.94783 18.6666 4.62611 18.6666 5.33335V6.66669H13.3333V5.33335C13.3333 4.62611 13.6142 3.94783 14.1143 3.44774C14.6144 2.94764 15.2927 2.66669 15.9999 2.66669Z" stroke="#2F5267" stroke-width="2" stroke-linecap="round" stroke-linejoin="round"/>
</svg>
