<svg width="40" height="40" viewBox="0 0 40 40" fill="none" xmlns="http://www.w3.org/2000/svg">
<g clip-path="url(#clip0_124_386)">
<path d="M0 20.0058C0.100387 14.5012 2.09092 9.78501 5.96587 5.88306C8.97462 2.84981 12.6029 0.949004 16.8249 0.272398C21.7553 -0.516019 26.3818 0.407146 30.5951 3.09063C35.4768 6.19843 38.4971 10.6308 39.6415 16.3074C39.9283 17.7323 40.1119 19.1829 39.9226 20.6451C39.4206 24.4926 35.7407 26.7604 32.0579 25.4874C31.6306 25.3383 31.2175 25.1462 30.7988 24.9656C29.7605 24.5155 28.7222 24.6933 27.9564 25.4559C27.2049 26.2042 27.0042 27.2334 27.4487 28.2598C28.3121 30.2495 28.4985 32.2821 27.747 34.3263C26.6313 37.3567 24.3941 39.1313 21.2735 39.8022C19.4952 40.1835 17.7112 39.9628 15.9759 39.5471C7.99369 37.6405 2.87394 32.7093 0.616664 24.8251C0.169224 23.2598 0.0114728 21.6399 0.00286821 20.0029L0 20.0058ZM20.0086 2.26781C18.8642 2.41689 17.7054 2.49144 16.5782 2.72653C12.3304 3.60955 8.85415 5.79705 6.18385 9.20015C2.90262 13.3859 1.61193 18.1508 2.71906 23.3687C4.08719 29.828 7.99943 34.2432 14.1718 36.6027C16.1996 37.3768 18.3336 37.8326 20.5105 37.5344C22.9743 37.199 24.7153 35.82 25.5672 33.4547C26.0949 31.9926 25.8798 30.5505 25.2775 29.1342C24.2851 26.812 25.18 24.203 27.377 22.9874C28.8599 22.1675 30.3686 22.2076 31.9117 22.8756C32.5455 23.1508 33.2282 23.4232 33.9051 23.4748C35.9415 23.6354 37.6366 22.0241 37.628 19.9456C37.6251 18.8991 37.5161 17.8412 37.3326 16.8091C35.8468 8.50348 28.4956 2.37962 20.0115 2.26781H20.0086Z" fill="#2F5267"/>
<path d="M18.7924 35.2093C16.2283 35.2035 14.1373 33.082 14.1431 30.4931C14.1488 27.93 16.277 25.8371 18.8641 25.8457C21.4283 25.8543 23.5192 27.9759 23.5135 30.5676C23.5049 33.1336 21.3882 35.2179 18.7924 35.2121V35.2093ZM18.8297 32.8641C20.1089 32.8641 21.1644 31.8148 21.1702 30.5361C21.1759 29.2574 20.1262 28.1966 18.8498 28.1852C17.5562 28.1766 16.4864 29.2431 16.4893 30.5361C16.495 31.8119 17.5505 32.8641 18.8297 32.8641Z" fill="#2F5267"/>
<path d="M9.45081 28.1852C6.87516 28.1852 4.77563 26.0751 4.77563 23.4948C4.77563 20.9231 6.89237 18.8188 9.47089 18.8217C12.0437 18.8217 14.1489 20.9346 14.1461 23.5178C14.1461 26.0952 12.0379 28.1909 9.45081 28.1881V28.1852ZM9.44794 25.8429C10.73 25.8457 11.7913 24.8022 11.7999 23.5264C11.8085 22.2334 10.7444 21.1611 9.45081 21.1668C8.17446 21.1697 7.11896 22.2276 7.11896 23.5063C7.11896 24.785 8.17159 25.84 9.44794 25.8457V25.8429Z" fill="#2F5267"/>
<path d="M29.3647 16.4793C27.42 16.4736 25.8511 14.8996 25.854 12.9529C25.8569 11.0206 27.4487 9.44663 29.3934 9.45524C31.3265 9.46384 32.8868 11.0493 32.8811 13.0045C32.8754 15.0114 31.3839 16.4851 29.3647 16.4793ZM29.4135 14.1341C30.1162 14.1284 30.5435 13.6898 30.5407 12.9816C30.5378 12.3279 29.9957 11.789 29.3532 11.7976C28.7279 11.809 28.1945 12.3537 28.2031 12.9759C28.2088 13.6209 28.7509 14.137 29.4135 14.1313V14.1341Z" fill="#2F5267"/>
<path d="M19.9856 11.7976C18.0495 11.7947 16.4806 10.2093 16.4863 8.26258C16.4921 6.33311 18.0897 4.76487 20.0343 4.77347C21.9503 4.78494 23.5134 6.36751 23.5134 8.29125C23.5134 10.2322 21.9331 11.8004 19.9856 11.7976ZM19.9913 9.45237C20.6223 9.45811 21.1644 8.92198 21.1673 8.29412C21.173 7.66625 20.6366 7.12152 20.0056 7.11866C19.3775 7.11292 18.8325 7.65191 18.8297 8.27978C18.8239 8.90765 19.3632 9.4495 19.9913 9.45524V9.45237Z" fill="#2F5267"/>
<path d="M10.6324 16.4793C8.68775 16.4793 7.1131 14.9025 7.11597 12.9615C7.11597 11.0263 8.70496 9.44948 10.6467 9.45522C12.5656 9.46095 14.1402 11.0349 14.1431 12.9558C14.1459 14.8996 12.5742 16.4793 10.6324 16.4793ZM10.6209 11.8004C9.99278 11.8061 9.45643 12.3509 9.46216 12.9787C9.4679 13.6095 10.01 14.1427 10.641 14.137C11.272 14.1312 11.8055 13.5894 11.7998 12.9615C11.794 12.3337 11.2491 11.7975 10.6209 11.8033V11.8004Z" fill="#2F5267"/>
</g>
<defs>
<clipPath id="clip0_124_386">
<rect width="40" height="40" fill="white"/>
</clipPath>
</defs>
</svg>
