<svg width="42" height="46" viewBox="0 0 42 46" fill="none" xmlns="http://www.w3.org/2000/svg">
<path d="M39.4516 23.14C37.3116 20.2 34.3516 17.73 30.3916 15.58C29.5716 15.14 28.7116 14.75 27.8716 14.39C27.6216 14.28 27.3716 14.17 27.1116 14.05C27.6316 12.47 27.5816 10.9 26.9616 9.38C26.3416 7.85 25.2416 6.69 23.6916 5.91C24.7016 3.94 26.3116 2.91 28.6216 2.76C29.5516 2.7 30.1116 2.15 30.0816 1.32C30.0516 0.52 29.4416 0 28.5216 0H28.5116C25.3116 0.02 22.2316 2.13 21.0016 5.14C20.9716 5.22 20.9516 5.25 20.9516 5.26C20.9416 5.26 20.9116 5.26 20.8516 5.26C20.7916 5.26 20.7616 5.26 20.7516 5.26C20.7516 5.25 20.7216 5.22 20.6916 5.14C19.4716 2.15 16.3816 0.03 13.1816 0.01C12.2416 0.02 11.6416 0.52 11.6116 1.32C11.5916 1.68 11.7016 2.55 13.0216 2.77L13.2516 2.81C13.9416 2.92 14.6616 3.04 15.2716 3.29C16.4816 3.79 17.4016 4.67 18.0016 5.92C16.4716 6.69 15.3816 7.84 14.7416 9.34C14.1016 10.86 14.0516 12.46 14.5916 14.09L14.3216 14.19C14.1716 14.25 14.0216 14.3 13.8716 14.36C9.60158 16.15 6.02158 18.69 3.22158 21.9C1.34158 24.07 0.331584 26.13 0.0515836 28.39C-0.318416 31.38 1.33158 34.18 4.05158 35.21C5.90158 35.91 7.83158 35.78 9.95158 34.81C10.7116 34.47 11.4316 34.04 12.1316 33.63C12.2616 33.55 12.3916 33.48 12.5316 33.4C13.2316 35.95 14.1216 38.1 15.2416 39.97C16.0416 41.3 17.0916 42.77 18.7916 43.54C19.4716 43.85 19.5616 43.96 19.5116 44.43C19.4716 44.78 19.5816 45.12 19.8216 45.39C20.0816 45.67 20.4616 45.83 20.8416 45.83C20.8516 45.83 20.8716 45.83 20.8816 45.83C21.2716 45.82 21.6416 45.65 21.8816 45.37C22.1116 45.11 22.2216 44.76 22.1916 44.4C22.1516 43.97 22.2116 43.83 22.7616 43.61C24.2316 43.02 25.1916 41.85 25.9316 40.77C27.0616 39.13 27.9716 37.19 28.7916 34.65C28.9316 34.23 29.0516 33.81 29.1716 33.37C29.1916 33.38 29.2116 33.4 29.2316 33.41C31.2416 34.8 33.0616 35.5 34.9516 35.61C36.7616 35.72 38.4616 35.1 39.7416 33.88C41.0116 32.67 41.7016 31.02 41.6916 29.23C41.6716 27.18 40.9416 25.19 39.4516 23.14ZM24.2216 38.32C23.5516 39.44 22.8416 40.4 21.7916 41.03C21.1616 41.41 20.5416 41.4 19.9016 41.03C18.8216 40.39 18.1116 39.35 17.4816 38.34C17.4816 38.34 17.4816 38.33 17.4716 38.32H24.2216ZM26.5516 32.55L26.5216 32.64C26.2016 33.62 25.8716 34.58 25.5416 35.54C22.3816 35.54 19.2316 35.55 16.1616 35.54C15.8416 34.61 15.5216 33.68 15.2116 32.72L15.1516 32.54H26.5616L26.5516 32.55ZM19.9716 24.49L20.8516 22.71L21.7316 24.49H19.9816H19.9716ZM24.4216 13.39C24.4216 13.39 24.4016 13.44 24.3916 13.45C24.3716 13.45 24.3616 13.45 24.3316 13.45C22.9116 13.28 21.7616 13.55 20.8516 14.27C20.1016 13.69 19.2216 13.4 18.1516 13.4C17.9016 13.4 17.6316 13.42 17.3516 13.45C17.3316 13.45 17.3216 13.45 17.3116 13.45C16.6916 11.85 16.9416 10.43 18.0616 9.25C19.1516 8.1 20.4516 7.74 21.9416 8.19C23.0116 8.52 23.9016 9.28 24.3716 10.28C24.8416 11.28 24.8616 12.38 24.4316 13.39H24.4216ZM19.4416 17.14C19.5216 18.03 19.3616 18.95 18.9316 20.13C17.8716 23.05 16.2016 25.76 13.8216 28.44C12.2616 30.2 10.8116 31.37 9.24158 32.14C8.35158 32.57 7.40158 32.86 6.87158 32.86C5.47158 32.85 4.29158 32.37 3.56158 31.5C2.90158 30.73 2.64158 29.7 2.80158 28.59C3.03158 27.06 3.72158 25.62 4.90158 24.2C7.78158 20.72 11.4516 18.16 15.8016 16.6C16.6916 16.28 17.6516 16.01 18.6516 16.22C19.1616 16.33 19.3916 16.59 19.4416 17.14ZM16.3516 29.74C16.9916 28.9 17.6316 28.08 18.2516 27.28C19.9816 27.27 21.7116 27.27 23.4216 27.26C24.0716 28.08 24.7016 28.91 25.3416 29.74H16.3516ZM22.2516 17.33C22.3116 16.41 22.6716 16.18 23.2616 16.18C23.3116 16.18 23.3616 16.18 23.4216 16.18C24.4816 16.24 25.3516 16.4 26.0916 16.67C30.2916 18.23 33.8616 20.72 36.7016 24.05C37.8116 25.35 38.5116 26.7 38.8416 28.17C39.0916 29.28 38.9316 30.36 38.3916 31.22C37.8816 32.01 37.0716 32.57 36.0916 32.78C35.8916 32.82 35.6916 32.83 35.5316 32.84H35.3616C33.9116 32.81 32.6216 32.36 31.1816 31.38C29.4116 30.18 27.8416 28.6 26.2416 26.41C24.4916 24.02 23.3516 21.9 22.6516 19.73C22.4416 19.07 22.2016 18.2 22.2616 17.3L22.2516 17.33Z" fill="#E79F3B"/>
</svg>
