<svg width="34" height="34" viewBox="0 0 34 34" fill="none" xmlns="http://www.w3.org/2000/svg">
<path d="M17.0004 9.01555L18.6834 7.32669C21.4821 4.51827 25.8212 4.43285 28.7152 7.12921V7.12921C31.972 10.1637 32.141 15.5052 29.0835 18.7671L25.6702 22.4085L18.2677 29.2693C17.5403 29.9435 16.4587 29.9436 15.731 29.2697L12.9075 26.6544" stroke="#2F5267" stroke-width="2" stroke-linecap="round"/>
<path d="M16.9991 9.01559L15.3166 7.32714C12.518 4.5185 8.17878 4.43294 5.28481 7.12935V7.12935C2.02811 10.1637 1.85908 15.5051 4.91653 18.7669L8.32991 22.4085L15.7312 29.2692C16.4585 29.9434 17.5401 29.9438 18.2677 29.27L21.0925 26.6543" stroke="#2F5267" stroke-width="2" stroke-linecap="round"/>
</svg>
