<svg width="27" height="25" viewBox="0 0 27 25" fill="none" xmlns="http://www.w3.org/2000/svg">
<path d="M22.6667 24.7817H4C3.64638 24.7817 3.30724 24.6412 3.05719 24.3912C2.80714 24.1411 2.66667 23.802 2.66667 23.4484V12.7817H0L12.3893 0.391049C12.5132 0.26708 12.6602 0.168735 12.8221 0.101636C12.9839 0.0345366 13.1574 0 13.3327 0C13.5079 0 13.6814 0.0345366 13.8433 0.101636C14.0051 0.168735 14.1522 0.26708 14.276 0.391049L26.6667 12.7817H24V23.4484C24 23.802 23.8595 24.1411 23.6095 24.3912C23.3594 24.6412 23.0203 24.7817 22.6667 24.7817ZM10.6667 15.4484H16V22.115H21.3333V11.219L13.3333 3.21905L5.33333 11.219V22.115H10.6667V15.4484Z" fill="#2F5267"/>
</svg>
