<svg width="166" height="225" viewBox="0 0 166 225" fill="none" xmlns="http://www.w3.org/2000/svg">
<path d="M4.756 188.144C4.084 188.144 3.44 188.056 2.824 187.88C2.208 187.696 1.712 187.46 1.336 187.172L1.996 185.708C2.356 185.964 2.78 186.176 3.268 186.344C3.764 186.504 4.264 186.584 4.768 186.584C5.152 186.584 5.46 186.548 5.692 186.476C5.932 186.396 6.108 186.288 6.22 186.152C6.332 186.016 6.388 185.86 6.388 185.684C6.388 185.46 6.3 185.284 6.124 185.156C5.948 185.02 5.716 184.912 5.428 184.832C5.14 184.744 4.82 184.664 4.468 184.592C4.124 184.512 3.776 184.416 3.424 184.304C3.08 184.192 2.764 184.048 2.476 183.872C2.188 183.696 1.952 183.464 1.768 183.176C1.592 182.888 1.504 182.52 1.504 182.072C1.504 181.592 1.632 181.156 1.888 180.764C2.152 180.364 2.544 180.048 3.064 179.816C3.592 179.576 4.252 179.456 5.044 179.456C5.572 179.456 6.092 179.52 6.604 179.648C7.116 179.768 7.568 179.952 7.96 180.2L7.36 181.676C6.968 181.452 6.576 181.288 6.184 181.184C5.792 181.072 5.408 181.016 5.032 181.016C4.656 181.016 4.348 181.06 4.108 181.148C3.868 181.236 3.696 181.352 3.592 181.496C3.488 181.632 3.436 181.792 3.436 181.976C3.436 182.192 3.524 182.368 3.7 182.504C3.876 182.632 4.108 182.736 4.396 182.816C4.684 182.896 5 182.976 5.344 183.056C5.696 183.136 6.044 183.228 6.388 183.332C6.74 183.436 7.06 183.576 7.348 183.752C7.636 183.928 7.868 184.16 8.044 184.448C8.228 184.736 8.32 185.1 8.32 185.54C8.32 186.012 8.188 186.444 7.924 186.836C7.66 187.228 7.264 187.544 6.736 187.784C6.216 188.024 5.556 188.144 4.756 188.144ZM12.7203 188.096C11.9843 188.096 11.3363 187.952 10.7763 187.664C10.2243 187.376 9.79634 186.984 9.49234 186.488C9.18834 185.984 9.03634 185.412 9.03634 184.772C9.03634 184.124 9.18434 183.552 9.48034 183.056C9.78434 182.552 10.1963 182.16 10.7163 181.88C11.2363 181.592 11.8243 181.448 12.4803 181.448C13.1123 181.448 13.6803 181.584 14.1843 181.856C14.6963 182.12 15.1003 182.504 15.3963 183.008C15.6923 183.504 15.8403 184.1 15.8403 184.796C15.8403 184.868 15.8363 184.952 15.8283 185.048C15.8203 185.136 15.8123 185.22 15.8043 185.3H10.5603V184.208H14.8203L14.1003 184.532C14.1003 184.196 14.0323 183.904 13.8963 183.656C13.7603 183.408 13.5723 183.216 13.3323 183.08C13.0923 182.936 12.8123 182.864 12.4923 182.864C12.1723 182.864 11.8883 182.936 11.6403 183.08C11.4003 183.216 11.2123 183.412 11.0763 183.668C10.9403 183.916 10.8723 184.212 10.8723 184.556V184.844C10.8723 185.196 10.9483 185.508 11.1003 185.78C11.2603 186.044 11.4803 186.248 11.7603 186.392C12.0483 186.528 12.3843 186.596 12.7683 186.596C13.1123 186.596 13.4123 186.544 13.6683 186.44C13.9323 186.336 14.1723 186.18 14.3883 185.972L15.3843 187.052C15.0883 187.388 14.7163 187.648 14.2683 187.832C13.8203 188.008 13.3043 188.096 12.7203 188.096ZM17.0867 188V181.544H18.8747V183.368L18.6227 182.84C18.8147 182.384 19.1227 182.04 19.5467 181.808C19.9707 181.568 20.4867 181.448 21.0947 181.448V183.176C21.0147 183.168 20.9427 183.164 20.8787 183.164C20.8147 183.156 20.7467 183.152 20.6747 183.152C20.1627 183.152 19.7467 183.3 19.4267 183.596C19.1147 183.884 18.9587 184.336 18.9587 184.952V188H17.0867ZM24.1824 188L21.4704 181.544H23.4024L25.6584 187.1H24.6984L27.0384 181.544H28.8384L26.1144 188H24.1824ZM29.6023 188V181.544H31.4743V188H29.6023ZM30.5383 180.644C30.1943 180.644 29.9143 180.544 29.6983 180.344C29.4823 180.144 29.3743 179.896 29.3743 179.6C29.3743 179.304 29.4823 179.056 29.6983 178.856C29.9143 178.656 30.1943 178.556 30.5383 178.556C30.8823 178.556 31.1623 178.652 31.3783 178.844C31.5943 179.028 31.7023 179.268 31.7023 179.564C31.7023 179.876 31.5943 180.136 31.3783 180.344C31.1703 180.544 30.8903 180.644 30.5383 180.644ZM36.3317 188.096C35.6357 188.096 35.0157 187.956 34.4717 187.676C33.9277 187.388 33.4997 186.992 33.1877 186.488C32.8837 185.984 32.7317 185.412 32.7317 184.772C32.7317 184.124 32.8837 183.552 33.1877 183.056C33.4997 182.552 33.9277 182.16 34.4717 181.88C35.0157 181.592 35.6357 181.448 36.3317 181.448C37.0117 181.448 37.6037 181.592 38.1077 181.88C38.6117 182.16 38.9837 182.564 39.2237 183.092L37.7717 183.872C37.6037 183.568 37.3917 183.344 37.1357 183.2C36.8877 183.056 36.6157 182.984 36.3197 182.984C35.9997 182.984 35.7117 183.056 35.4557 183.2C35.1997 183.344 34.9957 183.548 34.8437 183.812C34.6997 184.076 34.6277 184.396 34.6277 184.772C34.6277 185.148 34.6997 185.468 34.8437 185.732C34.9957 185.996 35.1997 186.2 35.4557 186.344C35.7117 186.488 35.9997 186.56 36.3197 186.56C36.6157 186.56 36.8877 186.492 37.1357 186.356C37.3917 186.212 37.6037 185.984 37.7717 185.672L39.2237 186.464C38.9837 186.984 38.6117 187.388 38.1077 187.676C37.6037 187.956 37.0117 188.096 36.3317 188.096ZM40.2663 188V181.544H42.1383V188H40.2663ZM41.2023 180.644C40.8583 180.644 40.5783 180.544 40.3623 180.344C40.1463 180.144 40.0383 179.896 40.0383 179.6C40.0383 179.304 40.1463 179.056 40.3623 178.856C40.5783 178.656 40.8583 178.556 41.2023 178.556C41.5463 178.556 41.8263 178.652 42.0423 178.844C42.2583 179.028 42.3663 179.268 42.3663 179.564C42.3663 179.876 42.2583 180.136 42.0423 180.344C41.8343 180.544 41.5543 180.644 41.2023 180.644ZM46.9477 188.096C46.2597 188.096 45.6477 187.952 45.1117 187.664C44.5837 187.376 44.1637 186.984 43.8517 186.488C43.5477 185.984 43.3957 185.412 43.3957 184.772C43.3957 184.124 43.5477 183.552 43.8517 183.056C44.1637 182.552 44.5837 182.16 45.1117 181.88C45.6477 181.592 46.2597 181.448 46.9477 181.448C47.6277 181.448 48.2357 181.592 48.7717 181.88C49.3077 182.16 49.7277 182.548 50.0317 183.044C50.3357 183.54 50.4877 184.116 50.4877 184.772C50.4877 185.412 50.3357 185.984 50.0317 186.488C49.7277 186.984 49.3077 187.376 48.7717 187.664C48.2357 187.952 47.6277 188.096 46.9477 188.096ZM46.9477 186.56C47.2597 186.56 47.5397 186.488 47.7877 186.344C48.0357 186.2 48.2317 185.996 48.3757 185.732C48.5197 185.46 48.5917 185.14 48.5917 184.772C48.5917 184.396 48.5197 184.076 48.3757 183.812C48.2317 183.548 48.0357 183.344 47.7877 183.2C47.5397 183.056 47.2597 182.984 46.9477 182.984C46.6357 182.984 46.3557 183.056 46.1077 183.2C45.8597 183.344 45.6597 183.548 45.5077 183.812C45.3637 184.076 45.2917 184.396 45.2917 184.772C45.2917 185.14 45.3637 185.46 45.5077 185.732C45.6597 185.996 45.8597 186.2 46.1077 186.344C46.3557 186.488 46.6357 186.56 46.9477 186.56ZM57.9094 188.096C57.3014 188.096 56.7534 187.96 56.2654 187.688C55.7774 187.408 55.3894 187.02 55.1014 186.524C54.8214 186.028 54.6814 185.444 54.6814 184.772C54.6814 184.092 54.8214 183.504 55.1014 183.008C55.3894 182.512 55.7774 182.128 56.2654 181.856C56.7534 181.584 57.3014 181.448 57.9094 181.448C58.4534 181.448 58.9294 181.568 59.3374 181.808C59.7454 182.048 60.0614 182.412 60.2854 182.9C60.5094 183.388 60.6214 184.012 60.6214 184.772C60.6214 185.524 60.5134 186.148 60.2974 186.644C60.0814 187.132 59.7694 187.496 59.3614 187.736C58.9614 187.976 58.4774 188.096 57.9094 188.096ZM58.2334 186.56C58.5374 186.56 58.8134 186.488 59.0614 186.344C59.3094 186.2 59.5054 185.996 59.6494 185.732C59.8014 185.46 59.8774 185.14 59.8774 184.772C59.8774 184.396 59.8014 184.076 59.6494 183.812C59.5054 183.548 59.3094 183.344 59.0614 183.2C58.8134 183.056 58.5374 182.984 58.2334 182.984C57.9214 182.984 57.6414 183.056 57.3934 183.2C57.1454 183.344 56.9454 183.548 56.7934 183.812C56.6494 184.076 56.5774 184.396 56.5774 184.772C56.5774 185.14 56.6494 185.46 56.7934 185.732C56.9454 185.996 57.1454 186.2 57.3934 186.344C57.6414 186.488 57.9214 186.56 58.2334 186.56ZM59.9254 188V186.68L59.9614 184.76L59.8414 182.852V179.096H61.7134V188H59.9254ZM66.65 188.096C65.914 188.096 65.266 187.952 64.706 187.664C64.154 187.376 63.726 186.984 63.422 186.488C63.118 185.984 62.966 185.412 62.966 184.772C62.966 184.124 63.114 183.552 63.41 183.056C63.714 182.552 64.126 182.16 64.646 181.88C65.166 181.592 65.754 181.448 66.41 181.448C67.042 181.448 67.61 181.584 68.114 181.856C68.626 182.12 69.03 182.504 69.326 183.008C69.622 183.504 69.77 184.1 69.77 184.796C69.77 184.868 69.766 184.952 69.758 185.048C69.75 185.136 69.742 185.22 69.734 185.3H64.49V184.208H68.75L68.03 184.532C68.03 184.196 67.962 183.904 67.826 183.656C67.69 183.408 67.502 183.216 67.262 183.08C67.022 182.936 66.742 182.864 66.422 182.864C66.102 182.864 65.818 182.936 65.57 183.08C65.33 183.216 65.142 183.412 65.006 183.668C64.87 183.916 64.802 184.212 64.802 184.556V184.844C64.802 185.196 64.878 185.508 65.03 185.78C65.19 186.044 65.41 186.248 65.69 186.392C65.978 186.528 66.314 186.596 66.698 186.596C67.042 186.596 67.342 186.544 67.598 186.44C67.862 186.336 68.102 186.18 68.318 185.972L69.314 187.052C69.018 187.388 68.646 187.648 68.198 187.832C67.75 188.008 67.234 188.096 66.65 188.096ZM74.4148 188V181.544H76.2868V188H74.4148ZM75.3508 180.644C75.0068 180.644 74.7268 180.544 74.5108 180.344C74.2948 180.144 74.1868 179.896 74.1868 179.6C74.1868 179.304 74.2948 179.056 74.5108 178.856C74.7268 178.656 75.0068 178.556 75.3508 178.556C75.6948 178.556 75.9748 178.652 76.1908 178.844C76.4068 179.028 76.5148 179.268 76.5148 179.564C76.5148 179.876 76.4068 180.136 76.1908 180.344C75.9828 180.544 75.7028 180.644 75.3508 180.644ZM78.0242 188V179.096H79.8962V188H78.0242ZM84.3575 188.096C83.8215 188.096 83.3415 187.992 82.9175 187.784C82.5015 187.576 82.1775 187.26 81.9455 186.836C81.7135 186.404 81.5975 185.856 81.5975 185.192V181.544H83.4695V184.916C83.4695 185.452 83.5815 185.848 83.8055 186.104C84.0375 186.352 84.3615 186.476 84.7775 186.476C85.0655 186.476 85.3215 186.416 85.5455 186.296C85.7695 186.168 85.9455 185.976 86.0735 185.72C86.2015 185.456 86.2655 185.128 86.2655 184.736V181.544H88.1375V188H86.3615V186.224L86.6855 186.74C86.4695 187.188 86.1495 187.528 85.7255 187.76C85.3095 187.984 84.8535 188.096 84.3575 188.096ZM92.0438 188.096C91.4918 188.096 90.9598 188.032 90.4478 187.904C89.9438 187.768 89.5438 187.6 89.2478 187.4L89.8718 186.056C90.1678 186.24 90.5158 186.392 90.9158 186.512C91.3238 186.624 91.7238 186.68 92.1158 186.68C92.5478 186.68 92.8518 186.628 93.0278 186.524C93.2118 186.42 93.3038 186.276 93.3038 186.092C93.3038 185.94 93.2318 185.828 93.0878 185.756C92.9518 185.676 92.7678 185.616 92.5358 185.576C92.3038 185.536 92.0478 185.496 91.7678 185.456C91.4958 185.416 91.2198 185.364 90.9398 185.3C90.6598 185.228 90.4038 185.124 90.1718 184.988C89.9398 184.852 89.7518 184.668 89.6078 184.436C89.4718 184.204 89.4038 183.904 89.4038 183.536C89.4038 183.128 89.5198 182.768 89.7518 182.456C89.9918 182.144 90.3358 181.9 90.7838 181.724C91.2318 181.54 91.7678 181.448 92.3918 181.448C92.8318 181.448 93.2798 181.496 93.7358 181.592C94.1918 181.688 94.5718 181.828 94.8758 182.012L94.2518 183.344C93.9398 183.16 93.6238 183.036 93.3038 182.972C92.9918 182.9 92.6878 182.864 92.3918 182.864C91.9758 182.864 91.6718 182.92 91.4798 183.032C91.2878 183.144 91.1918 183.288 91.1918 183.464C91.1918 183.624 91.2598 183.744 91.3958 183.824C91.5398 183.904 91.7278 183.968 91.9598 184.016C92.1918 184.064 92.4438 184.108 92.7158 184.148C92.9958 184.18 93.2758 184.232 93.5558 184.304C93.8358 184.376 94.0878 184.48 94.3118 184.616C94.5438 184.744 94.7318 184.924 94.8758 185.156C95.0198 185.38 95.0918 185.676 95.0918 186.044C95.0918 186.444 94.9718 186.8 94.7318 187.112C94.4918 187.416 94.1438 187.656 93.6878 187.832C93.2398 188.008 92.6918 188.096 92.0438 188.096ZM98.8868 188.096C98.1268 188.096 97.5348 187.904 97.1108 187.52C96.6868 187.128 96.4748 186.548 96.4748 185.78V180.116H98.3468V185.756C98.3468 186.028 98.4188 186.24 98.5628 186.392C98.7068 186.536 98.9028 186.608 99.1508 186.608C99.4468 186.608 99.6988 186.528 99.9068 186.368L100.411 187.688C100.219 187.824 99.9868 187.928 99.7148 188C99.4508 188.064 99.1748 188.096 98.8868 188.096ZM95.4788 183.128V181.688H99.9548V183.128H95.4788ZM101.462 188V181.544H103.25V183.368L102.998 182.84C103.19 182.384 103.498 182.04 103.922 181.808C104.346 181.568 104.862 181.448 105.47 181.448V183.176C105.39 183.168 105.318 183.164 105.254 183.164C105.19 183.156 105.122 183.152 105.05 183.152C104.538 183.152 104.122 183.3 103.802 183.596C103.49 183.884 103.334 184.336 103.334 184.952V188H101.462ZM110.121 188V186.74L110.001 186.464V184.208C110.001 183.808 109.877 183.496 109.629 183.272C109.389 183.048 109.017 182.936 108.513 182.936C108.169 182.936 107.829 182.992 107.493 183.104C107.165 183.208 106.885 183.352 106.653 183.536L105.981 182.228C106.333 181.98 106.757 181.788 107.253 181.652C107.749 181.516 108.253 181.448 108.765 181.448C109.749 181.448 110.513 181.68 111.057 182.144C111.601 182.608 111.873 183.332 111.873 184.316V188H110.121ZM108.153 188.096C107.649 188.096 107.217 188.012 106.857 187.844C106.497 187.668 106.221 187.432 106.029 187.136C105.837 186.84 105.741 186.508 105.741 186.14C105.741 185.756 105.833 185.42 106.017 185.132C106.209 184.844 106.509 184.62 106.917 184.46C107.325 184.292 107.857 184.208 108.513 184.208H110.229V185.3H108.717C108.277 185.3 107.973 185.372 107.805 185.516C107.645 185.66 107.565 185.84 107.565 186.056C107.565 186.296 107.657 186.488 107.841 186.632C108.033 186.768 108.293 186.836 108.621 186.836C108.933 186.836 109.213 186.764 109.461 186.62C109.709 186.468 109.889 186.248 110.001 185.96L110.289 186.824C110.153 187.24 109.905 187.556 109.545 187.772C109.185 187.988 108.721 188.096 108.153 188.096ZM116.734 188.096C116.038 188.096 115.418 187.956 114.874 187.676C114.33 187.388 113.902 186.992 113.59 186.488C113.286 185.984 113.134 185.412 113.134 184.772C113.134 184.124 113.286 183.552 113.59 183.056C113.902 182.552 114.33 182.16 114.874 181.88C115.418 181.592 116.038 181.448 116.734 181.448C117.414 181.448 118.006 181.592 118.51 181.88C119.014 182.16 119.386 182.564 119.626 183.092L118.174 183.872C118.006 183.568 117.794 183.344 117.538 183.2C117.29 183.056 117.018 182.984 116.722 182.984C116.402 182.984 116.114 183.056 115.858 183.2C115.602 183.344 115.398 183.548 115.246 183.812C115.102 184.076 115.03 184.396 115.03 184.772C115.03 185.148 115.102 185.468 115.246 185.732C115.398 185.996 115.602 186.2 115.858 186.344C116.114 186.488 116.402 186.56 116.722 186.56C117.018 186.56 117.29 186.492 117.538 186.356C117.794 186.212 118.006 185.984 118.174 185.672L119.626 186.464C119.386 186.984 119.014 187.388 118.51 187.676C118.006 187.956 117.414 188.096 116.734 188.096ZM120.669 188V181.544H122.541V188H120.669ZM121.605 180.644C121.261 180.644 120.981 180.544 120.765 180.344C120.549 180.144 120.441 179.896 120.441 179.6C120.441 179.304 120.549 179.056 120.765 178.856C120.981 178.656 121.261 178.556 121.605 178.556C121.949 178.556 122.229 178.652 122.445 178.844C122.661 179.028 122.769 179.268 122.769 179.564C122.769 179.876 122.661 180.136 122.445 180.344C122.237 180.544 121.957 180.644 121.605 180.644ZM127.35 188.096C126.662 188.096 126.05 187.952 125.514 187.664C124.986 187.376 124.566 186.984 124.254 186.488C123.95 185.984 123.798 185.412 123.798 184.772C123.798 184.124 123.95 183.552 124.254 183.056C124.566 182.552 124.986 182.16 125.514 181.88C126.05 181.592 126.662 181.448 127.35 181.448C128.03 181.448 128.638 181.592 129.174 181.88C129.71 182.16 130.13 182.548 130.434 183.044C130.738 183.54 130.89 184.116 130.89 184.772C130.89 185.412 130.738 185.984 130.434 186.488C130.13 186.984 129.71 187.376 129.174 187.664C128.638 187.952 128.03 188.096 127.35 188.096ZM127.35 186.56C127.662 186.56 127.942 186.488 128.19 186.344C128.438 186.2 128.634 185.996 128.778 185.732C128.922 185.46 128.994 185.14 128.994 184.772C128.994 184.396 128.922 184.076 128.778 183.812C128.634 183.548 128.438 183.344 128.19 183.2C127.942 183.056 127.662 182.984 127.35 182.984C127.038 182.984 126.758 183.056 126.51 183.2C126.262 183.344 126.062 183.548 125.91 183.812C125.766 184.076 125.694 184.396 125.694 184.772C125.694 185.14 125.766 185.46 125.91 185.732C126.062 185.996 126.262 186.2 126.51 186.344C126.758 186.488 127.038 186.56 127.35 186.56ZM126.234 180.716L127.854 178.988H129.87L127.698 180.716H126.234ZM136.065 181.448C136.577 181.448 137.033 181.552 137.433 181.76C137.841 181.96 138.161 182.272 138.393 182.696C138.625 183.112 138.741 183.648 138.741 184.304V188H136.869V184.592C136.869 184.072 136.753 183.688 136.521 183.44C136.297 183.192 135.977 183.068 135.561 183.068C135.265 183.068 134.997 183.132 134.757 183.26C134.525 183.38 134.341 183.568 134.205 183.824C134.077 184.08 134.013 184.408 134.013 184.808V188H132.141V181.544H133.929V183.332L133.593 182.792C133.825 182.36 134.157 182.028 134.589 181.796C135.021 181.564 135.513 181.448 136.065 181.448ZM3.616 203L0.904 196.544H2.836L5.092 202.1H4.132L6.472 196.544H8.272L5.548 203H3.616ZM12.0641 203.096C11.3281 203.096 10.6801 202.952 10.1201 202.664C9.56809 202.376 9.14009 201.984 8.83609 201.488C8.53209 200.984 8.38009 200.412 8.38009 199.772C8.38009 199.124 8.52809 198.552 8.82409 198.056C9.12809 197.552 9.54009 197.16 10.0601 196.88C10.5801 196.592 11.1681 196.448 11.8241 196.448C12.4561 196.448 13.0241 196.584 13.5281 196.856C14.0401 197.12 14.4441 197.504 14.7401 198.008C15.0361 198.504 15.1841 199.1 15.1841 199.796C15.1841 199.868 15.1801 199.952 15.1721 200.048C15.1641 200.136 15.1561 200.22 15.1481 200.3H9.90409V199.208H14.1641L13.4441 199.532C13.4441 199.196 13.3761 198.904 13.2401 198.656C13.1041 198.408 12.9161 198.216 12.6761 198.08C12.4361 197.936 12.1561 197.864 11.8361 197.864C11.5161 197.864 11.2321 197.936 10.9841 198.08C10.7441 198.216 10.5561 198.412 10.4201 198.668C10.2841 198.916 10.2161 199.212 10.2161 199.556V199.844C10.2161 200.196 10.2921 200.508 10.4441 200.78C10.6041 201.044 10.8241 201.248 11.1041 201.392C11.3921 201.528 11.7281 201.596 12.1121 201.596C12.4561 201.596 12.7561 201.544 13.0121 201.44C13.2761 201.336 13.5161 201.18 13.7321 200.972L14.7281 202.052C14.4321 202.388 14.0601 202.648 13.6121 202.832C13.1641 203.008 12.6481 203.096 12.0641 203.096ZM19.5504 203.096C18.8544 203.096 18.2344 202.956 17.6904 202.676C17.1464 202.388 16.7184 201.992 16.4064 201.488C16.1024 200.984 15.9504 200.412 15.9504 199.772C15.9504 199.124 16.1024 198.552 16.4064 198.056C16.7184 197.552 17.1464 197.16 17.6904 196.88C18.2344 196.592 18.8544 196.448 19.5504 196.448C20.2304 196.448 20.8224 196.592 21.3264 196.88C21.8304 197.16 22.2024 197.564 22.4424 198.092L20.9904 198.872C20.8224 198.568 20.6104 198.344 20.3544 198.2C20.1064 198.056 19.8344 197.984 19.5384 197.984C19.2184 197.984 18.9304 198.056 18.6744 198.2C18.4184 198.344 18.2144 198.548 18.0624 198.812C17.9184 199.076 17.8464 199.396 17.8464 199.772C17.8464 200.148 17.9184 200.468 18.0624 200.732C18.2144 200.996 18.4184 201.2 18.6744 201.344C18.9304 201.488 19.2184 201.56 19.5384 201.56C19.8344 201.56 20.1064 201.492 20.3544 201.356C20.6104 201.212 20.8224 200.984 20.9904 200.672L22.4424 201.464C22.2024 201.984 21.8304 202.388 21.3264 202.676C20.8224 202.956 20.2304 203.096 19.5504 203.096ZM26.254 203.096C25.494 203.096 24.902 202.904 24.478 202.52C24.054 202.128 23.842 201.548 23.842 200.78V195.116H25.714V200.756C25.714 201.028 25.786 201.24 25.93 201.392C26.074 201.536 26.27 201.608 26.518 201.608C26.814 201.608 27.066 201.528 27.274 201.368L27.778 202.688C27.586 202.824 27.354 202.928 27.082 203C26.818 203.064 26.542 203.096 26.254 203.096ZM22.846 198.128V196.688H27.322V198.128H22.846ZM31.7016 203.096C31.0136 203.096 30.4016 202.952 29.8656 202.664C29.3376 202.376 28.9176 201.984 28.6056 201.488C28.3016 200.984 28.1496 200.412 28.1496 199.772C28.1496 199.124 28.3016 198.552 28.6056 198.056C28.9176 197.552 29.3376 197.16 29.8656 196.88C30.4016 196.592 31.0136 196.448 31.7016 196.448C32.3816 196.448 32.9896 196.592 33.5256 196.88C34.0616 197.16 34.4816 197.548 34.7856 198.044C35.0896 198.54 35.2416 199.116 35.2416 199.772C35.2416 200.412 35.0896 200.984 34.7856 201.488C34.4816 201.984 34.0616 202.376 33.5256 202.664C32.9896 202.952 32.3816 203.096 31.7016 203.096ZM31.7016 201.56C32.0136 201.56 32.2936 201.488 32.5416 201.344C32.7896 201.2 32.9856 200.996 33.1296 200.732C33.2736 200.46 33.3456 200.14 33.3456 199.772C33.3456 199.396 33.2736 199.076 33.1296 198.812C32.9856 198.548 32.7896 198.344 32.5416 198.2C32.2936 198.056 32.0136 197.984 31.7016 197.984C31.3896 197.984 31.1096 198.056 30.8616 198.2C30.6136 198.344 30.4136 198.548 30.2616 198.812C30.1176 199.076 30.0456 199.396 30.0456 199.772C30.0456 200.14 30.1176 200.46 30.2616 200.732C30.4136 200.996 30.6136 201.2 30.8616 201.344C31.1096 201.488 31.3896 201.56 31.7016 201.56ZM36.4929 203V196.544H38.2809V198.368L38.0289 197.84C38.2209 197.384 38.5289 197.04 38.9529 196.808C39.3769 196.568 39.8929 196.448 40.5009 196.448V198.176C40.4209 198.168 40.3489 198.164 40.2849 198.164C40.2209 198.156 40.1529 198.152 40.0809 198.152C39.5689 198.152 39.1529 198.3 38.8329 198.596C38.5209 198.884 38.3649 199.336 38.3649 199.952V203H36.4929ZM41.6257 203V196.544H43.4977V203H41.6257ZM42.5617 195.644C42.2177 195.644 41.9377 195.544 41.7217 195.344C41.5057 195.144 41.3977 194.896 41.3977 194.6C41.3977 194.304 41.5057 194.056 41.7217 193.856C41.9377 193.656 42.2177 193.556 42.5617 193.556C42.9057 193.556 43.1857 193.652 43.4017 193.844C43.6177 194.028 43.7257 194.268 43.7257 194.564C43.7257 194.876 43.6177 195.136 43.4017 195.344C43.1937 195.544 42.9137 195.644 42.5617 195.644ZM49.1951 203V201.74L49.0751 201.464V199.208C49.0751 198.808 48.9511 198.496 48.7031 198.272C48.4631 198.048 48.0911 197.936 47.5871 197.936C47.2431 197.936 46.9031 197.992 46.5671 198.104C46.2391 198.208 45.9591 198.352 45.7271 198.536L45.0551 197.228C45.4071 196.98 45.8311 196.788 46.3271 196.652C46.8231 196.516 47.3271 196.448 47.8391 196.448C48.8231 196.448 49.5871 196.68 50.1311 197.144C50.6751 197.608 50.9471 198.332 50.9471 199.316V203H49.1951ZM47.2271 203.096C46.7231 203.096 46.2911 203.012 45.9311 202.844C45.5711 202.668 45.2951 202.432 45.1031 202.136C44.9111 201.84 44.8151 201.508 44.8151 201.14C44.8151 200.756 44.9071 200.42 45.0911 200.132C45.2831 199.844 45.5831 199.62 45.9911 199.46C46.3991 199.292 46.9311 199.208 47.5871 199.208H49.3031V200.3H47.7911C47.3511 200.3 47.0471 200.372 46.8791 200.516C46.7191 200.66 46.6391 200.84 46.6391 201.056C46.6391 201.296 46.7311 201.488 46.9151 201.632C47.1071 201.768 47.3671 201.836 47.6951 201.836C48.0071 201.836 48.2871 201.764 48.5351 201.62C48.7831 201.468 48.9631 201.248 49.0751 200.96L49.3631 201.824C49.2271 202.24 48.9791 202.556 48.6191 202.772C48.2591 202.988 47.7951 203.096 47.2271 203.096ZM52.6413 203V194.096H54.5133V203H52.6413Z" fill="#2F5267"/>
<path d="M2.764 220V212.32L3.604 213.16H1.084V211.6H4.708V220H2.764ZM9.64722 220.144C8.94322 220.144 8.32722 220.04 7.79922 219.832C7.27122 219.616 6.85922 219.316 6.56322 218.932C6.26722 218.54 6.11922 218.084 6.11922 217.564C6.11922 217.044 6.26322 216.604 6.55122 216.244C6.84722 215.876 7.25922 215.6 7.78722 215.416C8.31522 215.224 8.93522 215.128 9.64722 215.128C10.3672 215.128 10.9912 215.224 11.5192 215.416C12.0552 215.6 12.4672 215.876 12.7552 216.244C13.0512 216.604 13.1992 217.044 13.1992 217.564C13.1992 218.084 13.0512 218.54 12.7552 218.932C12.4592 219.316 12.0432 219.616 11.5072 219.832C10.9792 220.04 10.3592 220.144 9.64722 220.144ZM9.64722 218.716C10.1352 218.716 10.5192 218.608 10.7992 218.392C11.0872 218.176 11.2312 217.88 11.2312 217.504C11.2312 217.128 11.0872 216.836 10.7992 216.628C10.5192 216.412 10.1352 216.304 9.64722 216.304C9.16722 216.304 8.78722 216.412 8.50722 216.628C8.22722 216.836 8.08722 217.128 8.08722 217.504C8.08722 217.88 8.22722 218.176 8.50722 218.392C8.78722 218.608 9.16722 218.716 9.64722 218.716ZM9.64722 216.112C8.99922 216.112 8.43122 216.024 7.94322 215.848C7.46322 215.672 7.08722 215.416 6.81522 215.08C6.55122 214.736 6.41922 214.328 6.41922 213.856C6.41922 213.36 6.55522 212.936 6.82722 212.584C7.09922 212.224 7.47922 211.948 7.96722 211.756C8.45522 211.556 9.01522 211.456 9.64722 211.456C10.2952 211.456 10.8592 211.556 11.3392 211.756C11.8272 211.948 12.2072 212.224 12.4792 212.584C12.7592 212.936 12.8992 213.36 12.8992 213.856C12.8992 214.328 12.7632 214.736 12.4912 215.08C12.2272 215.416 11.8512 215.672 11.3632 215.848C10.8752 216.024 10.3032 216.112 9.64722 216.112ZM9.64722 214.972C10.0552 214.972 10.3752 214.88 10.6072 214.696C10.8472 214.512 10.9672 214.26 10.9672 213.94C10.9672 213.604 10.8432 213.344 10.5952 213.16C10.3552 212.976 10.0392 212.884 9.64722 212.884C9.26322 212.884 8.95122 212.976 8.71122 213.16C8.47122 213.344 8.35122 213.604 8.35122 213.94C8.35122 214.26 8.46722 214.512 8.69922 214.696C8.93122 214.88 9.24722 214.972 9.64722 214.972ZM13.9811 217.132V216.124H20.4491V217.132H13.9811ZM13.9811 215.476V214.468H20.4491V215.476H13.9811ZM19.6931 220.144C19.0371 220.144 18.4291 220.04 17.8691 219.832C17.3171 219.616 16.8371 219.312 16.4291 218.92C16.0211 218.528 15.7051 218.068 15.4811 217.54C15.2571 217.012 15.1451 216.432 15.1451 215.8C15.1451 215.168 15.2571 214.588 15.4811 214.06C15.7051 213.532 16.0211 213.072 16.4291 212.68C16.8371 212.288 17.3171 211.988 17.8691 211.78C18.4291 211.564 19.0371 211.456 19.6931 211.456C20.4211 211.456 21.0811 211.584 21.6731 211.84C22.2651 212.088 22.7571 212.456 23.1491 212.944L21.9131 214.096C21.6251 213.768 21.3051 213.524 20.9531 213.364C20.6011 213.196 20.2131 213.112 19.7891 213.112C19.3971 213.112 19.0371 213.176 18.7091 213.304C18.3811 213.432 18.0971 213.616 17.8571 213.856C17.6171 214.096 17.4291 214.38 17.2931 214.708C17.1651 215.036 17.1011 215.4 17.1011 215.8C17.1011 216.2 17.1651 216.564 17.2931 216.892C17.4291 217.22 17.6171 217.504 17.8571 217.744C18.0971 217.984 18.3811 218.168 18.7091 218.296C19.0371 218.424 19.3971 218.488 19.7891 218.488C20.2131 218.488 20.6011 218.408 20.9531 218.248C21.3051 218.08 21.6251 217.828 21.9131 217.492L23.1491 218.644C22.7571 219.132 22.2651 219.504 21.6731 219.76C21.0811 220.016 20.4211 220.144 19.6931 220.144ZM26.5633 221.2L30.5233 209.896H31.3033L27.3433 221.2H26.5633ZM35.2868 213.64C35.7988 213.64 36.2468 213.74 36.6308 213.94C37.0228 214.132 37.3268 214.428 37.5428 214.828C37.7668 215.228 37.8788 215.732 37.8788 216.34V220H37.0268V216.424C37.0268 215.76 36.8588 215.26 36.5228 214.924C36.1948 214.58 35.7308 214.408 35.1308 214.408C34.6828 214.408 34.2908 214.5 33.9548 214.684C33.6268 214.86 33.3708 215.12 33.1868 215.464C33.0108 215.8 32.9228 216.208 32.9228 216.688V220H32.0708V211.096H32.9228V215.428L32.7548 215.104C32.9548 214.648 33.2748 214.292 33.7148 214.036C34.1548 213.772 34.6788 213.64 35.2868 213.64ZM42.7482 220.06C42.1402 220.06 41.5922 219.924 41.1042 219.652C40.6242 219.372 40.2442 218.992 39.9642 218.512C39.6842 218.024 39.5442 217.468 39.5442 216.844C39.5442 216.212 39.6842 215.656 39.9642 215.176C40.2442 214.696 40.6242 214.32 41.1042 214.048C41.5842 213.776 42.1322 213.64 42.7482 213.64C43.3722 213.64 43.9242 213.776 44.4042 214.048C44.8922 214.32 45.2722 214.696 45.5442 215.176C45.8242 215.656 45.9642 216.212 45.9642 216.844C45.9642 217.468 45.8242 218.024 45.5442 218.512C45.2722 218.992 44.8922 219.372 44.4042 219.652C43.9162 219.924 43.3642 220.06 42.7482 220.06ZM42.7482 219.304C43.2042 219.304 43.6082 219.204 43.9602 219.004C44.3122 218.796 44.5882 218.508 44.7882 218.14C44.9962 217.764 45.1002 217.332 45.1002 216.844C45.1002 216.348 44.9962 215.916 44.7882 215.548C44.5882 215.18 44.3122 214.896 43.9602 214.696C43.6082 214.488 43.2082 214.384 42.7602 214.384C42.3122 214.384 41.9122 214.488 41.5602 214.696C41.2082 214.896 40.9282 215.18 40.7202 215.548C40.5122 215.916 40.4082 216.348 40.4082 216.844C40.4082 217.332 40.5122 217.764 40.7202 218.14C40.9282 218.508 41.2082 218.796 41.5602 219.004C41.9122 219.204 42.3082 219.304 42.7482 219.304ZM47.7036 220V213.7H48.5196V215.416L48.4356 215.116C48.6116 214.636 48.9076 214.272 49.3236 214.024C49.7396 213.768 50.2556 213.64 50.8716 213.64V214.468C50.8396 214.468 50.8076 214.468 50.7756 214.468C50.7436 214.46 50.7116 214.456 50.6796 214.456C50.0156 214.456 49.4956 214.66 49.1196 215.068C48.7436 215.468 48.5556 216.04 48.5556 216.784V220H47.7036ZM55.9055 220V218.608L55.8695 218.38V216.052C55.8695 215.516 55.7175 215.104 55.4135 214.816C55.1175 214.528 54.6735 214.384 54.0815 214.384C53.6735 214.384 53.2855 214.452 52.9175 214.588C52.5495 214.724 52.2375 214.904 51.9815 215.128L51.5975 214.492C51.9175 214.22 52.3015 214.012 52.7495 213.868C53.1975 213.716 53.6695 213.64 54.1655 213.64C54.9815 213.64 55.6095 213.844 56.0495 214.252C56.4975 214.652 56.7215 215.264 56.7215 216.088V220H55.9055ZM53.7335 220.06C53.2615 220.06 52.8495 219.984 52.4975 219.832C52.1535 219.672 51.8895 219.456 51.7055 219.184C51.5215 218.904 51.4295 218.584 51.4295 218.224C51.4295 217.896 51.5055 217.6 51.6575 217.336C51.8175 217.064 52.0735 216.848 52.4255 216.688C52.7855 216.52 53.2655 216.436 53.8655 216.436H56.0375V217.072H53.8895C53.2815 217.072 52.8575 217.18 52.6175 217.396C52.3855 217.612 52.2695 217.88 52.2695 218.2C52.2695 218.56 52.4095 218.848 52.6895 219.064C52.9695 219.28 53.3615 219.388 53.8655 219.388C54.3455 219.388 54.7575 219.28 55.1015 219.064C55.4535 218.84 55.7095 218.52 55.8695 218.104L56.0615 218.692C55.9015 219.108 55.6215 219.44 55.2215 219.688C54.8295 219.936 54.3335 220.06 53.7335 220.06Z" fill="#2F5267"/>
<g clip-path="url(#clip0_84_1949)">
<path d="M11 15.0045C11.0753 10.876 12.5682 7.33891 15.4744 4.41245C17.731 2.13751 20.4522 0.711905 23.6187 0.204451C27.3165 -0.386862 30.7863 0.305512 33.9464 2.31813C37.6076 4.64898 39.8728 7.97323 40.7311 12.2307C40.9462 13.2993 41.0839 14.3874 40.9419 15.484C40.5655 18.3696 37.8055 20.0704 35.0435 19.1157C34.7229 19.0039 34.4132 18.8598 34.0991 18.7244C33.3204 18.3868 32.5417 18.5201 31.9673 19.0921C31.4037 19.6533 31.2531 20.4252 31.5865 21.195C32.234 22.6872 32.3739 24.2118 31.8103 25.7449C30.9735 28.0177 29.2956 29.3487 26.9551 29.8518C25.6214 30.1378 24.2834 29.9722 22.9819 29.6604C16.9953 28.2305 13.1555 24.5321 11.4625 18.619C11.1269 17.445 11.0086 16.2301 11.0022 15.0023L11 15.0045ZM26.0065 1.70101C25.1481 1.81282 24.2791 1.86873 23.4337 2.04505C20.2478 2.70732 17.6406 4.34794 15.6379 6.90027C13.177 10.0396 12.2089 13.6133 13.0393 17.5267C14.0654 22.3712 16.9996 25.6825 21.6289 27.4522C23.1497 28.0327 24.7502 28.3746 26.3829 28.151C28.2307 27.8994 29.5365 26.8651 30.1754 25.0912C30.5712 23.9946 30.4099 22.913 29.9581 21.8508C29.2138 20.1091 29.885 18.1524 31.5328 17.2407C32.6449 16.6258 33.7764 16.6559 34.9337 17.1569C35.4091 17.3633 35.9211 17.5676 36.4288 17.6063C37.9561 17.7267 39.2274 16.5182 39.221 14.9593C39.2188 14.1745 39.1371 13.3811 38.9994 12.607C37.8851 6.37776 32.3717 1.78487 26.0086 1.70101H26.0065Z" fill="#E79F3B"/>
<path d="M25.0945 26.4069C23.1713 26.4026 21.6031 24.8115 21.6074 22.8698C21.6117 20.9475 23.2079 19.3778 25.1482 19.3843C27.0714 19.3907 28.6396 20.9819 28.6353 22.9257C28.6288 24.8502 27.0412 26.4134 25.0945 26.4091V26.4069ZM25.1224 24.6481C26.0818 24.6481 26.8735 23.8611 26.8778 22.9021C26.8821 21.9431 26.0947 21.1475 25.1375 21.1389C24.1673 21.1324 23.3649 21.9323 23.3671 22.9021C23.3714 23.8589 24.163 24.6481 25.1224 24.6481Z" fill="#E79F3B"/>
<path d="M18.0882 21.1389C16.1564 21.1389 14.5818 19.5563 14.5818 17.6211C14.5818 15.6923 16.1693 14.1141 18.1032 14.1162C20.0328 14.1162 21.6118 15.7009 21.6096 17.6383C21.6096 19.5713 20.0285 21.1432 18.0882 21.141V21.1389ZM18.086 19.3821C19.0476 19.3843 19.8435 18.6016 19.85 17.6447C19.8564 16.675 19.0583 15.8708 18.0882 15.8751C17.1309 15.8773 16.3393 16.6707 16.3393 17.6297C16.3393 18.5887 17.1288 19.38 18.086 19.3843V19.3821Z" fill="#E79F3B"/>
<path d="M33.0234 12.3595C31.5649 12.3552 30.3882 11.1747 30.3904 9.71474C30.3925 8.26548 31.5864 7.08501 33.0449 7.09146C34.4948 7.09791 35.665 8.28698 35.6607 9.75344C35.6564 11.2586 34.5378 12.3638 33.0234 12.3595ZM33.06 10.6006C33.587 10.5963 33.9075 10.2673 33.9054 9.73624C33.9032 9.24599 33.4966 8.84174 33.0148 8.84819C32.5458 8.8568 32.1457 9.26534 32.1522 9.73194C32.1565 10.2157 32.5631 10.6028 33.06 10.5985V10.6006Z" fill="#E79F3B"/>
<path d="M25.9892 8.84817C24.5371 8.84602 23.3605 7.65694 23.3648 6.19693C23.3691 4.74983 24.5673 3.57365 26.0257 3.5801C27.4627 3.58871 28.6351 4.77563 28.6351 6.21844C28.6351 7.67414 27.4498 8.85032 25.9892 8.84817ZM25.9935 7.08928C26.4667 7.09358 26.8733 6.69149 26.8754 6.22059C26.8797 5.74969 26.4775 5.34114 26.0042 5.33899C25.5331 5.33469 25.1244 5.73893 25.1223 6.20983C25.1179 6.68074 25.5224 7.08713 25.9935 7.09143V7.08928Z" fill="#E79F3B"/>
<path d="M18.9742 12.3595C17.5157 12.3595 16.3348 11.1769 16.3369 9.72117C16.3369 8.26977 17.5287 7.08714 18.985 7.09144C20.4241 7.09574 21.6051 8.27622 21.6072 9.71687C21.6094 11.1747 20.4306 12.3595 18.9742 12.3595ZM18.9656 8.85033C18.4945 8.85463 18.0923 9.26317 18.0966 9.73407C18.1009 10.2071 18.5074 10.6071 18.9807 10.6028C19.4539 10.5985 19.8541 10.1921 19.8498 9.72117C19.8454 9.25027 19.4367 8.84818 18.9656 8.85248V8.85033Z" fill="#E79F3B"/>
</g>
<defs>
<clipPath id="clip0_84_1949">
<rect width="30" height="30" fill="white" transform="translate(11)"/>
</clipPath>
</defs>
</svg>
