<svg width="149" height="46" viewBox="0 0 149 46" fill="none" xmlns="http://www.w3.org/2000/svg">
<g clip-path="url(#clip0_10_304)">
<path d="M72.32 16.6899C70.3 15.5599 68.03 14.9899 65.49 14.9899C63.22 14.9899 61.24 15.4899 59.54 16.4899C58.74 16.9599 58.03 17.5599 57.39 18.2599V5.18994H49.59V42.2899H57.04V39.1599C57.71 39.9799 58.49 40.6599 59.39 41.1899C61.09 42.1899 63.12 42.6899 65.49 42.6899C68.02 42.6899 70.3 42.1199 72.32 40.9599C74.34 39.8099 75.94 38.1999 77.12 36.1399C78.3 34.0699 78.89 31.6399 78.89 28.8399C78.89 26.0399 78.3 23.5599 77.12 21.4899C75.94 19.4199 74.34 17.8199 72.32 16.6899ZM70.07 32.8199C69.45 33.9399 68.64 34.7999 67.62 35.3999C66.6 35.9999 65.45 36.2999 64.14 36.2999C62.83 36.2999 61.67 35.9999 60.64 35.3999C59.61 34.7999 58.79 33.9399 58.19 32.8199C57.59 31.6999 57.29 30.3799 57.29 28.8399C57.29 27.2999 57.59 25.9399 58.19 24.8399C58.79 23.7399 59.61 22.8899 60.64 22.2899C61.67 21.6899 62.84 21.3899 64.14 21.3899C65.44 21.3899 66.6 21.6899 67.62 22.2899C68.64 22.8899 69.45 23.7399 70.07 24.8399C70.69 25.9399 70.99 27.2699 70.99 28.8399C70.99 30.4099 70.68 31.6999 70.07 32.8199Z" fill="#2F5267"/>
<path d="M87.99 2.93994C86.56 2.93994 85.39 3.35994 84.49 4.18994C83.59 5.01994 83.14 6.05994 83.14 7.28994C83.14 8.51994 83.59 9.55994 84.49 10.3899C85.39 11.2199 86.56 11.6399 87.99 11.6399C89.42 11.6399 90.63 11.2099 91.52 10.3699C92.4 9.51994 92.84 8.43994 92.84 7.13994C92.84 5.90994 92.39 4.89994 91.49 4.11994C90.59 3.33994 89.42 2.93994 87.99 2.93994Z" fill="#2F5267"/>
<path d="M91.89 15.3899H84.09V42.2899H91.89V15.3899Z" fill="#2F5267"/>
<path d="M120.84 20.0899V15.3899H97.64V21.3899H111L97.29 37.5899V42.2899H121.29V36.2899H107.14L120.84 20.0899Z" fill="#2F5267"/>
<path d="M134.29 36.2899L147.99 20.0899V15.3899H124.79V21.3899H138.15L124.44 37.5899V42.2899H148.44V36.2899H134.29Z" fill="#2F5267"/>
<path d="M39.45 23.13C37.31 20.19 34.35 17.72 30.39 15.57C29.57 15.13 28.71 14.74 27.87 14.38C27.62 14.27 27.37 14.16 27.11 14.04C27.63 12.46 27.58 10.89 26.96 9.36999C26.34 7.83999 25.24 6.67999 23.69 5.89999C24.7 3.92999 26.31 2.89999 28.62 2.74999C29.55 2.68999 30.11 2.13999 30.08 1.30999C30.05 0.50999 29.44 -0.0100098 28.52 -0.0100098H28.51C25.31 0.00999023 22.23 2.11999 21 5.12999C20.97 5.20999 20.95 5.23999 20.95 5.24999C20.94 5.24999 20.91 5.24999 20.85 5.24999C20.79 5.24999 20.76 5.24999 20.75 5.24999C20.75 5.23999 20.72 5.20999 20.69 5.12999C19.47 2.13999 16.38 0.0199902 13.18 -9.76585e-06C12.24 0.00999023 11.64 0.50999 11.61 1.30999C11.59 1.66999 11.7 2.53999 13.02 2.75999L13.25 2.79999C13.94 2.90999 14.66 3.02999 15.27 3.27999C16.48 3.77999 17.4 4.65999 18 5.90999C16.47 6.67999 15.38 7.82999 14.74 9.32999C14.1 10.85 14.05 12.45 14.59 14.08L14.32 14.18C14.17 14.24 14.02 14.29 13.87 14.35C9.6 16.14 6.02 18.68 3.22 21.89C1.34 24.06 0.329997 26.12 0.0499967 28.38C-0.320003 31.37 1.33 34.17 4.05 35.2C5.9 35.9 7.83 35.77 9.95 34.8C10.71 34.46 11.43 34.03 12.13 33.62C12.26 33.54 12.39 33.47 12.53 33.39C13.23 35.94 14.12 38.09 15.24 39.96C16.04 41.29 17.09 42.76 18.79 43.53C19.47 43.84 19.56 43.95 19.51 44.42C19.47 44.77 19.58 45.11 19.82 45.38C20.08 45.66 20.46 45.82 20.84 45.82C20.85 45.82 20.87 45.82 20.88 45.82C21.27 45.81 21.64 45.64 21.88 45.36C22.11 45.1 22.22 44.75 22.19 44.39C22.15 43.96 22.21 43.82 22.76 43.6C24.23 43.01 25.19 41.84 25.93 40.76C27.06 39.12 27.97 37.18 28.79 34.64C28.93 34.22 29.05 33.8 29.17 33.36C29.19 33.37 29.21 33.39 29.23 33.4C31.24 34.79 33.06 35.49 34.95 35.6C36.76 35.71 38.46 35.09 39.74 33.87C41.01 32.66 41.7 31.01 41.69 29.22C41.67 27.17 40.94 25.18 39.45 23.13ZM24.22 38.31C23.55 39.43 22.84 40.39 21.79 41.02C21.16 41.4 20.54 41.39 19.9 41.02C18.82 40.38 18.11 39.34 17.48 38.33C17.48 38.33 17.48 38.32 17.47 38.31H24.22ZM26.55 32.54L26.52 32.63C26.2 33.61 25.87 34.57 25.54 35.53C22.38 35.53 19.23 35.54 16.16 35.53C15.84 34.6 15.52 33.67 15.21 32.71L15.15 32.53H26.56L26.55 32.54ZM19.97 24.48L20.85 22.7L21.73 24.48H19.98H19.97ZM24.42 13.38C24.42 13.38 24.4 13.43 24.39 13.44C24.37 13.44 24.36 13.44 24.33 13.44C22.91 13.27 21.76 13.54 20.85 14.26C20.1 13.68 19.22 13.39 18.15 13.39C17.9 13.39 17.63 13.41 17.35 13.44C17.33 13.44 17.32 13.44 17.31 13.44C16.69 11.84 16.94 10.42 18.06 9.23999C19.15 8.08999 20.45 7.72999 21.94 8.17999C23.01 8.50999 23.9 9.26999 24.37 10.27C24.84 11.27 24.86 12.37 24.43 13.38H24.42ZM19.44 17.13C19.52 18.02 19.36 18.94 18.93 20.12C17.87 23.04 16.2 25.75 13.82 28.43C12.26 30.19 10.81 31.36 9.24 32.13C8.35 32.56 7.4 32.85 6.87 32.85C5.47 32.84 4.29 32.36 3.56 31.49C2.9 30.72 2.64 29.69 2.8 28.58C3.03 27.05 3.72 25.61 4.9 24.19C7.78 20.71 11.45 18.15 15.8 16.59C16.69 16.27 17.65 16 18.65 16.21C19.16 16.32 19.39 16.58 19.44 17.13ZM16.35 29.73C16.99 28.89 17.63 28.07 18.25 27.27C19.98 27.26 21.71 27.26 23.42 27.25C24.07 28.07 24.7 28.9 25.34 29.73H16.35ZM22.25 17.32C22.31 16.4 22.67 16.17 23.26 16.17C23.31 16.17 23.36 16.17 23.42 16.17C24.48 16.23 25.35 16.39 26.09 16.66C30.29 18.22 33.86 20.71 36.7 24.04C37.81 25.34 38.51 26.69 38.84 28.16C39.09 29.27 38.93 30.35 38.39 31.21C37.88 32 37.07 32.56 36.09 32.77C35.89 32.81 35.69 32.82 35.53 32.83H35.36C33.91 32.8 32.62 32.35 31.18 31.37C29.41 30.17 27.84 28.59 26.24 26.4C24.49 24.01 23.35 21.89 22.65 19.72C22.44 19.06 22.2 18.19 22.26 17.29L22.25 17.32Z" fill="#E79F3B"/>
</g>
<defs>
<clipPath id="clip0_10_304">
<rect width="148.44" height="45.82" fill="white"/>
</clipPath>
</defs>
</svg>
