<svg width="40" height="40" viewBox="0 0 40 40" fill="none" xmlns="http://www.w3.org/2000/svg">
<path d="M28.4718 22.575C27.8108 22.4738 26.9347 22.363 26.0713 22.1985C25.7771 22.1416 25.6032 22.2017 25.3976 22.4073C20.1505 27.6683 14.8907 32.9198 9.64364 38.1808C8.4228 39.4051 6.98372 40.0536 5.24418 39.9935C2.68863 39.9081 0.414575 37.8423 0.0635033 35.3083C-0.205335 33.3564 0.4209 31.7335 1.79672 30.3605C7.03433 25.128 12.2656 19.886 17.5127 14.6566C17.791 14.3814 17.8353 14.1536 17.7467 13.7803C16.3266 7.8265 20.1252 1.71134 26.0902 0.309886C28.3168 -0.2121 30.4992 -0.0760675 32.6436 0.705331C33.7126 1.09445 33.9403 2.05933 33.137 2.86604C31.2456 4.76734 29.3479 6.66231 27.4471 8.55095C27.2668 8.73127 27.1814 8.88945 27.2447 9.15835C27.4502 10.0283 27.6305 10.9078 27.814 11.7841C27.8582 11.9929 27.9405 12.1163 28.1714 12.1606C29.0633 12.3377 29.952 12.5275 30.8344 12.7332C31.0843 12.7901 31.2361 12.7205 31.4069 12.5465C33.2856 10.6547 35.1675 8.76291 37.0715 6.89008C37.3055 6.65914 37.6408 6.46617 37.9602 6.3934C38.5011 6.26686 38.985 6.59904 39.2001 7.16848C40.4304 10.4491 40.2469 13.6633 38.5485 16.7192C36.7868 19.8891 34.0447 21.7556 30.477 22.3852C29.8919 22.4896 29.2878 22.4959 28.4687 22.5687L28.4718 22.575ZM30.1892 2.62561C30.1544 2.58448 30.1196 2.54336 30.088 2.50223C30.0026 2.48009 29.9172 2.4358 29.8318 2.4358C28.8988 2.4611 27.9436 2.3662 27.0391 2.54336C21.7983 3.56519 18.6576 8.83567 20.239 13.9163C20.4699 14.6566 20.3339 15.1913 19.7868 15.7354C14.3467 21.1546 8.92252 26.5927 3.48882 32.0182C2.66649 32.8407 2.26482 33.7866 2.40714 34.9666C2.59375 36.4915 4.21943 37.7759 5.7439 37.6145C6.64846 37.5196 7.3601 37.1115 7.98633 36.4851C13.4327 31.0343 18.8822 25.5867 24.3222 20.1296C24.8125 19.6392 25.3153 19.5 25.9764 19.7215C27.4218 20.2055 28.9051 20.2846 30.4011 19.9904C34.769 19.1362 37.742 15.2957 37.6028 10.9015C37.5934 10.563 37.5301 10.2276 37.4921 9.8923C37.451 9.87648 37.4099 9.86066 37.3688 9.84168C37.2929 9.94608 37.2296 10.0631 37.1379 10.1549C35.6039 11.6955 34.0573 13.2235 32.536 14.7737C32.1027 15.2134 31.6315 15.3273 31.0495 15.1976C29.6547 14.8876 28.2599 14.5807 26.862 14.2991C26.1946 14.1631 25.8182 13.793 25.6822 13.1255C25.4007 11.7398 25.1098 10.3542 24.7903 8.97487C24.6448 8.34215 24.784 7.8518 25.2521 7.39309C26.786 5.8904 28.2947 4.35924 29.816 2.84706C29.9141 2.74899 30.0627 2.69837 30.1861 2.62561H30.1892Z" fill="#2F5267"/>
</svg>
