<svg width="430" height="413" viewBox="0 0 430 413" fill="none" xmlns="http://www.w3.org/2000/svg">
<path d="M90.9079 68.4005L257.757 45.746C263.267 44.9979 268.763 47.244 272.151 51.6274L373.141 182.32C376.528 186.704 377.284 192.548 375.119 197.625L309.558 351.358C307.44 356.325 302.84 359.816 297.449 360.548L130.6 383.202C125.09 383.95 119.594 381.704 116.206 377.321L15.2158 246.628C11.8286 242.245 11.0734 236.4 13.2384 231.323L78.799 77.5906C80.9174 72.6232 85.5166 69.1326 90.9079 68.4005Z" stroke="#FDB53F" stroke-width="3"/>
<path d="M207.845 43.6621L361.243 96.1019C366.471 97.8891 370.319 102.362 371.318 107.813L400.161 265.138C401.16 270.589 399.156 276.176 394.915 279.768L270.451 385.157C266.305 388.668 260.638 389.748 255.529 388.001L102.131 335.561C96.9026 333.774 93.0545 329.301 92.0552 323.851L63.2127 166.525C62.2134 161.074 64.2171 155.487 68.4589 151.895L192.922 46.5058C197.068 42.9952 202.735 41.9153 207.845 43.6621Z" stroke="#FDB53F" stroke-width="3"/>
<g clip-path="url(#clip0_85_2346)">
<path d="M208.32 207.69C206.3 206.56 204.03 205.99 201.49 205.99C199.22 205.99 197.24 206.49 195.54 207.49C194.74 207.96 194.03 208.56 193.39 209.26V196.19H185.59V233.29H193.04V230.16C193.71 230.98 194.49 231.66 195.39 232.19C197.09 233.19 199.12 233.69 201.49 233.69C204.02 233.69 206.3 233.12 208.32 231.96C210.34 230.81 211.94 229.2 213.12 227.14C214.3 225.07 214.89 222.64 214.89 219.84C214.89 217.04 214.3 214.56 213.12 212.49C211.94 210.42 210.34 208.82 208.32 207.69ZM206.07 223.82C205.45 224.94 204.64 225.8 203.62 226.4C202.6 227 201.45 227.3 200.14 227.3C198.83 227.3 197.67 227 196.64 226.4C195.61 225.8 194.79 224.94 194.19 223.82C193.59 222.7 193.29 221.38 193.29 219.84C193.29 218.3 193.59 216.94 194.19 215.84C194.79 214.74 195.61 213.89 196.64 213.29C197.67 212.69 198.84 212.39 200.14 212.39C201.44 212.39 202.6 212.69 203.62 213.29C204.64 213.89 205.45 214.74 206.07 215.84C206.69 216.94 206.99 218.27 206.99 219.84C206.99 221.41 206.68 222.7 206.07 223.82Z" fill="#2F5267"/>
<path d="M223.99 193.94C222.56 193.94 221.39 194.36 220.49 195.19C219.59 196.02 219.14 197.06 219.14 198.29C219.14 199.52 219.59 200.56 220.49 201.39C221.39 202.22 222.56 202.64 223.99 202.64C225.42 202.64 226.63 202.21 227.52 201.37C228.4 200.52 228.84 199.44 228.84 198.14C228.84 196.91 228.39 195.9 227.49 195.12C226.59 194.34 225.42 193.94 223.99 193.94Z" fill="#2F5267"/>
<path d="M227.89 206.39H220.09V233.29H227.89V206.39Z" fill="#2F5267"/>
<path d="M256.84 211.09V206.39H233.64V212.39H247L233.29 228.59V233.29H257.29V227.29H243.14L256.84 211.09Z" fill="#2F5267"/>
<path d="M270.29 227.29L283.99 211.09V206.39H260.79V212.39H274.15L260.44 228.59V233.29H284.44V227.29H270.29Z" fill="#2F5267"/>
<path d="M175.45 214.13C173.31 211.19 170.35 208.72 166.39 206.57C165.57 206.13 164.71 205.74 163.87 205.38C163.62 205.27 163.37 205.16 163.11 205.04C163.63 203.46 163.58 201.89 162.96 200.37C162.34 198.84 161.24 197.68 159.69 196.9C160.7 194.93 162.31 193.9 164.62 193.75C165.55 193.69 166.11 193.14 166.08 192.31C166.05 191.51 165.44 190.99 164.52 190.99H164.51C161.31 191.01 158.23 193.12 157 196.13C156.97 196.21 156.95 196.24 156.95 196.25C156.94 196.25 156.91 196.25 156.85 196.25C156.79 196.25 156.76 196.25 156.75 196.25C156.75 196.24 156.72 196.21 156.69 196.13C155.47 193.14 152.38 191.02 149.18 191C148.24 191.01 147.64 191.51 147.61 192.31C147.59 192.67 147.7 193.54 149.02 193.76L149.25 193.8C149.94 193.91 150.66 194.03 151.27 194.28C152.48 194.78 153.4 195.66 154 196.91C152.47 197.68 151.38 198.83 150.74 200.33C150.1 201.85 150.05 203.45 150.59 205.08L150.32 205.18C150.17 205.24 150.02 205.29 149.87 205.35C145.6 207.14 142.02 209.68 139.22 212.89C137.34 215.06 136.33 217.12 136.05 219.38C135.68 222.37 137.33 225.17 140.05 226.2C141.9 226.9 143.83 226.77 145.95 225.8C146.71 225.46 147.43 225.03 148.13 224.62C148.26 224.54 148.39 224.47 148.53 224.39C149.23 226.94 150.12 229.09 151.24 230.96C152.04 232.29 153.09 233.76 154.79 234.53C155.47 234.84 155.56 234.95 155.51 235.42C155.47 235.77 155.58 236.11 155.82 236.38C156.08 236.66 156.46 236.82 156.84 236.82C156.85 236.82 156.87 236.82 156.88 236.82C157.27 236.81 157.64 236.64 157.88 236.36C158.11 236.1 158.22 235.75 158.19 235.39C158.15 234.96 158.21 234.82 158.76 234.6C160.23 234.01 161.19 232.84 161.93 231.76C163.06 230.12 163.97 228.18 164.79 225.64C164.93 225.22 165.05 224.8 165.17 224.36C165.19 224.37 165.21 224.39 165.23 224.4C167.24 225.79 169.06 226.49 170.95 226.6C172.76 226.71 174.46 226.09 175.74 224.87C177.01 223.66 177.7 222.01 177.69 220.22C177.67 218.17 176.94 216.18 175.45 214.13ZM160.22 229.31C159.55 230.43 158.84 231.39 157.79 232.02C157.16 232.4 156.54 232.39 155.9 232.02C154.82 231.38 154.11 230.34 153.48 229.33C153.48 229.33 153.48 229.32 153.47 229.31H160.22ZM162.55 223.54L162.52 223.63C162.2 224.61 161.87 225.57 161.54 226.53C158.38 226.53 155.23 226.54 152.16 226.53C151.84 225.6 151.52 224.67 151.21 223.71L151.15 223.53H162.56L162.55 223.54ZM155.97 215.48L156.85 213.7L157.73 215.48H155.98H155.97ZM160.42 204.38C160.42 204.38 160.4 204.43 160.39 204.44C160.37 204.44 160.36 204.44 160.33 204.44C158.91 204.27 157.76 204.54 156.85 205.26C156.1 204.68 155.22 204.39 154.15 204.39C153.9 204.39 153.63 204.41 153.35 204.44C153.33 204.44 153.32 204.44 153.31 204.44C152.69 202.84 152.94 201.42 154.06 200.24C155.15 199.09 156.45 198.73 157.94 199.18C159.01 199.51 159.9 200.27 160.37 201.27C160.84 202.27 160.86 203.37 160.43 204.38H160.42ZM155.44 208.13C155.52 209.02 155.36 209.94 154.93 211.12C153.87 214.04 152.2 216.75 149.82 219.43C148.26 221.19 146.81 222.36 145.24 223.13C144.35 223.56 143.4 223.85 142.87 223.85C141.47 223.84 140.29 223.36 139.56 222.49C138.9 221.72 138.64 220.69 138.8 219.58C139.03 218.05 139.72 216.61 140.9 215.19C143.78 211.71 147.45 209.15 151.8 207.59C152.69 207.27 153.65 207 154.65 207.21C155.16 207.32 155.39 207.58 155.44 208.13ZM152.35 220.73C152.99 219.89 153.63 219.07 154.25 218.27C155.98 218.26 157.71 218.26 159.42 218.25C160.07 219.07 160.7 219.9 161.34 220.73H152.35ZM158.25 208.32C158.31 207.4 158.67 207.17 159.26 207.17C159.31 207.17 159.36 207.17 159.42 207.17C160.48 207.23 161.35 207.39 162.09 207.66C166.29 209.22 169.86 211.71 172.7 215.04C173.81 216.34 174.51 217.69 174.84 219.16C175.09 220.27 174.93 221.35 174.39 222.21C173.88 223 173.07 223.56 172.09 223.77C171.89 223.81 171.69 223.82 171.53 223.83H171.36C169.91 223.8 168.62 223.35 167.18 222.37C165.41 221.17 163.84 219.59 162.24 217.4C160.49 215.01 159.35 212.89 158.65 210.72C158.44 210.06 158.2 209.19 158.26 208.29L158.25 208.32Z" fill="#E79F3B"/>
</g>
<defs>
<clipPath id="clip0_85_2346">
<rect width="148.44" height="45.82" fill="white" transform="translate(136 191)"/>
</clipPath>
</defs>
</svg>
