<svg width="16" height="16" viewBox="0 0 16 16" fill="none" xmlns="http://www.w3.org/2000/svg">
<path d="M7.11158 2.48663C7.47822 1.74274 8.5389 1.74274 8.90553 2.48663L10.0479 4.80447C10.1936 5.10003 10.4755 5.30486 10.8016 5.35207L13.3336 5.71861C14.1529 5.83722 14.4815 6.84306 13.8902 7.42249L12.0448 9.23105C11.8107 9.46053 11.7039 9.79022 11.759 10.1134L12.194 12.6635C12.3336 13.4816 11.4734 14.1039 10.7401 13.7153L8.47672 12.5162C8.18389 12.361 7.83322 12.361 7.5404 12.5162L5.27702 13.7153C4.54369 14.1039 3.68355 13.4816 3.8231 12.6635L4.25787 10.1149C4.31313 9.79087 4.20567 9.4604 3.9704 9.23089L2.11827 7.42411C1.52478 6.84514 1.85314 5.83695 2.67376 5.71855L5.21518 5.35187C5.54148 5.30479 5.82361 5.09991 5.96935 4.8042L7.11158 2.48663Z" fill="#E79F3B" stroke="#E79F3B" stroke-width="2" stroke-miterlimit="10"/>
</svg>
