<svg width="40" height="40" viewBox="0 0 40 40" fill="none" xmlns="http://www.w3.org/2000/svg">
<g clip-path="url(#clip0_124_395)">
<path d="M38.764 12.4946C39.8253 10.663 40.1689 8.68722 39.7865 6.62002C39.0965 2.91791 35.6355 0.00831313 31.9057 0H31.878C28.6663 0 26.1946 1.40492 24.5236 4.17596C24.3269 4.50294 24.1385 4.82993 23.9445 5.16522L23.853 5.3204C21.6362 4.3256 19.3556 4.00139 17.0751 4.35331C13.251 4.94354 10.347 6.85002 8.44049 10.0145C6.1821 13.7638 4.03454 17.513 1.5018 21.9882C0.10797 24.46 -0.318771 27.1784 0.232667 30.0658C1.35217 35.9155 6.34559 40 12.126 40C12.5444 40 12.9656 39.9778 13.3896 39.9363C17.4464 39.5206 20.55 37.5726 22.6144 34.1448C25.3549 29.5975 27.533 25.8317 29.4699 22.293C31.7117 18.2002 31.5815 14.0159 29.0848 9.85937C28.3255 8.59577 27.2864 7.49567 25.9119 6.50641C25.9673 6.40942 26.0228 6.31244 26.0782 6.21822C26.3276 5.78594 26.5603 5.37582 26.8208 4.97956C28.1675 2.93176 30.7557 1.92587 33.1166 2.53828C34.9427 3.01212 36.3975 4.25355 37.1125 5.94389C37.8302 7.64254 37.6999 9.56564 36.755 11.2172C35.8544 12.7967 34.9234 14.3956 34.0255 15.9418C33.5323 16.7897 33.039 17.6405 32.5486 18.4912C32.2687 18.9761 31.986 19.4555 31.7062 19.9377C31.0023 21.1403 30.2735 22.3845 29.5974 23.6342C28.6386 25.4049 29.2593 27.6633 31.0079 28.7717C32.7398 29.8691 35.0785 29.4423 36.2174 27.824C36.8215 26.9678 37.3369 26.0395 37.8385 25.1417C37.9992 24.8535 38.1599 24.5653 38.3234 24.2771C38.5728 23.8393 38.498 23.3266 38.1267 22.9359C37.7581 22.5507 37.2787 22.4482 36.8437 22.6616C36.5887 22.7863 36.3421 23.0163 36.1869 23.2768C35.9071 23.7423 35.6355 24.2134 35.3667 24.6817C35.0758 25.186 34.7765 25.707 34.4717 26.2085C34.1946 26.6657 33.7457 26.9539 33.2441 26.9983C32.7453 27.0398 32.2631 26.8459 31.914 26.4524C31.4318 25.9092 31.3986 25.2137 31.8142 24.4905C34.1281 20.4891 36.4419 16.4877 38.7612 12.4919L38.764 12.4946ZM21.0571 11.885C21.1042 11.8046 21.1873 11.7714 21.2732 11.7714C21.3342 11.7714 21.3979 11.788 21.4533 11.8185C21.6002 11.8989 21.6667 12.0679 21.6113 12.2314C21.5974 12.2757 21.5725 12.3284 21.5309 12.3949C21.3979 12.6276 21.2649 12.8576 21.1319 13.0904C20.7439 13.7693 20.3421 14.4732 19.9265 15.1465C19.8655 15.2463 19.7297 15.3433 19.6217 15.4236L19.6106 15.4319C19.4277 15.4015 19.3141 15.3072 19.2614 15.2213C19.2171 15.1465 19.2143 15.0717 19.2531 14.9997C19.8323 13.9273 20.4613 12.8687 21.0543 11.885H21.0571ZM22.1294 8.31313C22.1073 8.35192 22.0823 8.39072 22.0602 8.42951C22.002 8.5265 21.9382 8.62626 21.8856 8.74264C21.6251 9.29685 21.4561 9.47974 20.9545 9.45757C20.1953 9.42986 19.472 9.88154 18.9843 10.7045C18.2832 11.8878 17.7179 12.866 17.2025 13.7859C16.6927 14.6976 16.7259 15.6425 17.2995 16.593C17.3023 16.5985 17.3078 16.6069 17.3106 16.6179C17.1277 16.9588 16.931 17.2968 16.7231 17.6515L16.701 17.6903L9.2247 13.4091C11.048 9.64046 13.4201 7.54555 16.6733 6.83339C18.7294 6.38171 20.694 6.56183 22.6643 7.3876L22.1294 8.31036V8.31313ZM18.7737 18.8486C18.9788 18.4912 19.1755 18.1503 19.3778 17.8178C20.5416 17.8455 21.445 17.3329 22.0325 16.2771C22.401 15.6176 22.789 14.9525 23.163 14.3097L23.5926 13.5698C24.1689 12.575 24.1578 11.583 23.5538 10.5992C23.9057 9.97575 24.2659 9.35504 24.6317 8.72324L24.7148 8.57915C26.0754 9.59058 27.0619 10.8182 27.7242 12.3173C29.046 15.3211 28.9351 18.3 27.3944 21.1735C27.1035 21.7167 26.7959 22.2404 26.4717 22.7946C26.3913 22.9304 26.3109 23.0662 26.2334 23.2047L18.7543 18.8736L18.7682 18.8486H18.7737ZM25.0169 25.3079L24.2354 26.6602C23.0938 28.636 21.9493 30.6145 20.8049 32.5902C19.2503 35.2671 16.9337 36.9131 13.9133 37.4811C8.90603 38.4205 3.86827 35.1368 2.6795 30.16C2.07264 27.6162 2.40516 25.1971 3.66876 22.9692C4.70236 21.1486 5.77198 19.3059 6.80558 17.5241C7.20461 16.8341 7.60641 16.1469 8.00544 15.4569L25.0169 25.3079Z" fill="#2F5267"/>
</g>
<defs>
<clipPath id="clip0_124_395">
<rect width="39.9363" height="40" fill="white"/>
</clipPath>
</defs>
</svg>
